<svg width="1302" height="125" viewBox="0 0 1302 125" fill="none" xmlns="http://www.w3.org/2000/svg">
<path d="M-2.95192e-05 122.094V9.23399H27.702V122.094H-2.95192e-05ZM20.349 122.094V99.693H87.21V122.094H20.349ZM20.349 75.411V55.062H78.831V75.411H20.349ZM20.349 31.635V9.23399H86.868V31.635H20.349ZM103.869 122.094V9.23399H151.578C157.506 9.23399 162.921 9.68999 167.823 10.602C172.839 11.514 177.285 12.939 181.161 14.877C185.037 16.701 188.343 18.924 191.079 21.546C193.815 24.168 195.867 27.246 197.235 30.78C198.717 34.314 199.458 38.247 199.458 42.579C199.458 46.455 198.831 49.989 197.577 53.181C196.323 56.259 194.385 59.052 191.763 61.56C189.255 63.954 186.063 65.949 182.187 67.545C178.311 69.027 173.751 70.11 168.507 70.794V73.017C175.119 73.587 180.249 75.012 183.897 77.292C187.659 79.572 190.509 82.593 192.447 86.355C194.385 90.003 196.038 94.278 197.406 99.18L203.733 122.094H173.124L168.336 100.89C167.424 96.558 166.113 93.138 164.403 90.63C162.807 88.122 160.641 86.412 157.905 85.5C155.169 84.474 151.749 83.961 147.645 83.961H131.571V122.094H103.869ZM131.571 63.27H149.355C156.195 63.27 161.439 61.959 165.087 59.337C168.849 56.715 170.73 52.611 170.73 47.025C170.73 41.439 169.02 37.278 165.6 34.542C162.18 31.806 156.993 30.438 150.039 30.438H131.571V63.27ZM238.608 90.801V69.426H262.548C269.844 69.426 275.259 67.944 278.793 64.98C282.441 61.902 284.265 56.829 284.265 49.761C284.265 43.491 282.612 38.76 279.306 35.568C276 32.262 270.87 30.609 263.916 30.609H238.608V9.23399H264.942C272.01 9.23399 278.394 10.089 284.094 11.799C289.908 13.395 294.924 15.903 299.142 19.323C303.36 22.629 306.609 26.847 308.889 31.977C311.169 37.107 312.309 43.149 312.309 50.103C312.309 59.109 310.257 66.633 306.153 72.675C302.163 78.717 296.235 83.277 288.369 86.355C280.503 89.319 270.756 90.801 259.128 90.801H238.608ZM218.259 122.094V9.23399H245.961V122.094H218.259ZM408.845 124.488C401.321 124.488 394.595 123.747 388.667 122.265C382.739 120.783 377.609 118.56 373.277 115.596C369.059 112.632 365.753 108.927 363.359 104.481C361.079 100.035 359.768 94.905 359.426 89.091L384.05 81.567C384.392 86.583 385.703 90.687 387.983 93.879C390.263 97.071 393.341 99.465 397.217 101.061C401.093 102.543 405.425 103.284 410.213 103.284C414.659 103.284 418.421 102.771 421.499 101.745C424.577 100.605 426.914 99.123 428.51 97.299C430.106 95.475 430.904 93.537 430.904 91.485C430.904 88.863 429.821 86.697 427.655 84.987C425.603 83.277 422.696 81.852 418.934 80.712C415.286 79.458 411.011 78.261 406.109 77.121C400.637 75.753 395.222 74.271 389.864 72.675C384.62 71.079 379.832 69.027 375.5 66.519C371.168 63.897 367.691 60.591 365.069 56.601C362.561 52.497 361.307 47.424 361.307 41.382C361.307 34.314 363.074 28.215 366.608 23.085C370.256 17.955 375.443 13.965 382.169 11.115C389.009 8.26499 397.217 6.83999 406.793 6.83999C416.483 6.83999 424.805 8.32199 431.759 11.286C438.713 14.136 444.071 18.24 447.833 23.598C451.595 28.842 453.476 34.998 453.476 42.066L428.681 48.393C428.681 45.087 428.168 42.18 427.142 39.672C426.116 37.05 424.691 34.884 422.867 33.174C421.043 31.464 418.706 30.21 415.856 29.412C413.12 28.5 409.985 28.044 406.451 28.044C402.347 28.044 398.87 28.557 396.02 29.583C393.17 30.495 391.004 31.806 389.522 33.516C388.154 35.112 387.47 36.993 387.47 39.159C387.47 41.781 388.553 43.947 390.719 45.657C392.999 47.367 396.077 48.849 399.953 50.103C403.829 51.243 408.218 52.383 413.12 53.523C418.022 54.663 423.038 56.031 428.168 57.627C433.298 59.223 438.086 61.275 442.532 63.783C446.978 66.291 450.569 69.711 453.305 74.043C456.041 78.261 457.409 83.619 457.409 90.117C457.409 97.299 455.528 103.455 451.766 108.585C448.004 113.715 442.475 117.648 435.179 120.384C427.997 123.12 419.219 124.488 408.845 124.488ZM514.98 124.488C507.228 124.488 500.388 123.405 494.46 121.239C488.532 118.959 483.573 115.767 479.583 111.663C475.707 107.445 472.743 102.543 470.691 96.957C468.753 91.257 467.784 84.987 467.784 78.147C467.784 71.079 468.753 64.638 470.691 58.824C472.743 52.896 475.707 47.709 479.583 43.263C483.573 38.817 488.475 35.397 494.289 33.003C500.103 30.609 506.772 29.412 514.296 29.412C522.39 29.412 529.23 30.78 534.816 33.516C540.402 36.252 544.791 39.957 547.983 44.631C551.175 49.305 553.113 54.606 553.797 60.534L528.66 67.374C528.546 63.498 527.748 60.363 526.266 57.969C524.898 55.461 523.074 53.637 520.794 52.497C518.514 51.357 515.949 50.787 513.099 50.787C510.249 50.787 507.741 51.357 505.575 52.497C503.523 53.523 501.756 55.176 500.274 57.456C498.792 59.622 497.652 62.358 496.854 65.664C496.056 68.856 495.657 72.561 495.657 76.779C495.657 82.821 496.398 87.894 497.88 91.998C499.362 95.988 501.528 99.009 504.378 101.061C507.342 103.113 510.99 104.139 515.322 104.139C519.768 104.139 523.188 103.227 525.582 101.403C527.976 99.465 529.686 97.128 530.712 94.392C531.738 91.542 532.251 88.749 532.251 86.013L556.704 90.288C556.59 94.734 555.678 99.009 553.968 103.113C552.372 107.217 549.864 110.922 546.444 114.228C543.138 117.42 538.863 119.928 533.619 121.752C528.489 123.576 522.276 124.488 514.98 124.488ZM568.584 122.094V67.374V-1.37687e-05H596.286V26.505C596.286 28.899 596.172 31.521 595.944 34.371C595.716 37.221 595.374 40.185 594.918 43.263C594.462 46.341 594.006 49.362 593.55 52.326C593.208 55.29 592.752 58.083 592.182 60.705H595.602C597.084 54.093 599.022 48.45 601.416 43.776C603.81 39.102 607.002 35.568 610.992 33.174C615.096 30.666 620.169 29.412 626.211 29.412C636.585 29.412 644.337 33.06 649.467 40.356C654.597 47.652 657.162 58.881 657.162 74.043V122.094H629.46V77.634C629.46 69.198 628.263 62.928 625.869 58.824C623.475 54.606 619.77 52.497 614.754 52.497C610.65 52.497 607.23 53.808 604.494 56.43C601.758 59.052 599.706 62.7 598.338 67.374C596.97 72.048 596.286 77.577 596.286 83.961V122.094H568.584ZM716.515 124.488C707.509 124.488 699.529 122.721 692.575 119.187C685.621 115.653 680.149 110.409 676.159 103.455C672.283 96.387 670.345 87.552 670.345 76.95C670.345 66.12 672.34 57.228 676.33 50.274C680.32 43.206 685.792 37.962 692.746 34.542C699.7 31.122 707.68 29.412 716.686 29.412C725.806 29.412 733.843 31.179 740.797 34.713C747.751 38.247 753.166 43.548 757.042 50.616C761.032 57.57 763.027 66.348 763.027 76.95C763.027 87.894 760.975 96.9 756.871 103.968C752.881 110.922 747.352 116.109 740.284 119.529C733.216 122.835 725.293 124.488 716.515 124.488ZM717.37 104.31C721.246 104.31 724.495 103.398 727.117 101.574C729.853 99.636 731.848 96.729 733.102 92.853C734.47 88.977 735.154 84.246 735.154 78.66C735.154 72.618 734.413 67.545 732.931 63.441C731.563 59.337 729.454 56.202 726.604 54.036C723.754 51.756 720.22 50.616 716.002 50.616C712.126 50.616 708.82 51.585 706.084 53.523C703.462 55.347 701.467 58.197 700.099 62.073C698.845 65.949 698.218 70.794 698.218 76.608C698.218 85.728 699.871 92.625 703.177 97.299C706.483 101.973 711.214 104.31 717.37 104.31ZM819.049 124.488C810.043 124.488 802.063 122.721 795.109 119.187C788.155 115.653 782.683 110.409 778.693 103.455C774.817 96.387 772.879 87.552 772.879 76.95C772.879 66.12 774.874 57.228 778.864 50.274C782.854 43.206 788.326 37.962 795.28 34.542C802.234 31.122 810.214 29.412 819.22 29.412C828.34 29.412 836.377 31.179 843.331 34.713C850.285 38.247 855.7 43.548 859.576 50.616C863.566 57.57 865.561 66.348 865.561 76.95C865.561 87.894 863.509 96.9 859.405 103.968C855.415 110.922 849.886 116.109 842.818 119.529C835.75 122.835 827.827 124.488 819.049 124.488ZM819.904 104.31C823.78 104.31 827.029 103.398 829.651 101.574C832.387 99.636 834.382 96.729 835.636 92.853C837.004 88.977 837.688 84.246 837.688 78.66C837.688 72.618 836.947 67.545 835.465 63.441C834.097 59.337 831.988 56.202 829.138 54.036C826.288 51.756 822.754 50.616 818.536 50.616C814.66 50.616 811.354 51.585 808.618 53.523C805.996 55.347 804.001 58.197 802.633 62.073C801.379 65.949 800.752 70.794 800.752 76.608C800.752 85.728 802.405 92.625 805.711 97.299C809.017 101.973 813.748 104.31 819.904 104.31ZM879.858 122.094V-1.37687e-05H907.047V122.094H879.858ZM918.09 122.094L956.223 9.23399H995.553L1033.51 122.094H1003.59L977.085 30.951H974.691L948.015 122.094H918.09ZM940.491 101.232V82.422H1015.22V101.232H940.491ZM1071.77 124.488C1061.4 124.488 1053.59 120.954 1048.34 113.886C1043.1 106.704 1040.48 95.817 1040.48 81.225V31.806H1068.18V78.318C1068.18 86.412 1069.32 92.34 1071.6 96.102C1073.99 99.75 1077.53 101.574 1082.2 101.574C1085.16 101.574 1087.73 100.833 1089.9 99.351C1092.06 97.869 1093.89 95.76 1095.37 93.024C1096.96 90.288 1098.16 87.039 1098.96 83.277C1099.76 79.401 1100.16 75.069 1100.16 70.281V31.806H1127.69V84.474V122.094H1105.29L1104.94 92.169H1102.21C1100.73 99.807 1098.73 106.02 1096.22 110.808C1093.71 115.482 1090.47 118.959 1086.48 121.239C1082.6 123.405 1077.7 124.488 1071.77 124.488ZM1146.54 122.094V78.318V31.806H1169.46L1169.8 63.783H1172.71C1173.51 55.461 1174.99 48.849 1177.15 43.947C1179.32 38.931 1182.28 35.34 1186.05 33.174C1189.92 30.894 1194.65 29.754 1200.24 29.754C1201.49 29.754 1202.8 29.868 1204.17 30.096C1205.54 30.324 1207.08 30.666 1208.79 31.122L1207.76 60.876C1205.71 59.85 1203.54 59.166 1201.26 58.824C1199.1 58.368 1197.16 58.14 1195.45 58.14C1191.23 58.14 1187.58 59.052 1184.51 60.876C1181.54 62.586 1179.21 65.265 1177.5 68.913C1175.79 72.561 1174.7 77.121 1174.25 82.593V122.094H1146.54ZM1240.74 124.488C1235.84 124.488 1231.39 123.576 1227.4 121.752C1223.53 119.814 1220.45 116.964 1218.17 113.202C1215.89 109.44 1214.75 104.766 1214.75 99.18C1214.75 93.936 1215.72 89.604 1217.65 86.184C1219.71 82.764 1222.61 80.028 1226.38 77.976C1230.25 75.924 1234.7 74.328 1239.71 73.188C1244.84 71.934 1250.49 70.794 1256.64 69.768C1260.63 69.084 1263.82 68.457 1266.22 67.887C1268.73 67.317 1270.55 66.519 1271.69 65.493C1272.83 64.353 1273.4 62.757 1273.4 60.705C1273.4 57.741 1272.32 55.29 1270.15 53.352C1267.99 51.414 1264.68 50.445 1260.23 50.445C1257.27 50.445 1254.48 51.015 1251.85 52.155C1249.23 53.181 1247.01 54.834 1245.19 57.114C1243.48 59.28 1242.34 62.073 1241.77 65.493L1217.31 59.679C1218.45 54.207 1220.28 49.59 1222.78 45.828C1225.41 41.952 1228.66 38.817 1232.53 36.423C1236.41 33.915 1240.74 32.148 1245.53 31.122C1250.43 29.982 1255.62 29.412 1261.09 29.412C1270.09 29.412 1277.5 30.951 1283.32 34.029C1289.13 36.993 1293.41 41.553 1296.14 47.709C1298.99 53.865 1300.42 61.674 1300.42 71.136V85.671C1300.42 89.661 1300.48 93.708 1300.59 97.812C1300.7 101.802 1300.82 105.849 1300.93 109.953C1301.16 113.943 1301.44 117.99 1301.79 122.094H1277.68C1277.33 119.016 1276.99 115.596 1276.65 111.834C1276.31 107.958 1276.08 103.968 1275.97 99.864H1273.23C1271.98 104.424 1269.81 108.585 1266.73 112.347C1263.77 116.109 1260.06 119.073 1255.62 121.239C1251.28 123.405 1246.33 124.488 1240.74 124.488ZM1252.88 104.823C1254.93 104.823 1256.98 104.481 1259.04 103.797C1261.2 102.999 1263.25 101.916 1265.19 100.548C1267.24 99.066 1269.01 97.242 1270.49 95.076C1271.98 92.796 1273.06 90.231 1273.74 87.381L1273.4 76.437L1277.33 76.779C1275.51 78.261 1273.34 79.401 1270.84 80.199C1268.44 80.997 1265.88 81.681 1263.14 82.251C1260.52 82.707 1257.9 83.22 1255.27 83.79C1252.65 84.246 1250.32 84.873 1248.26 85.671C1246.21 86.469 1244.56 87.552 1243.3 88.92C1242.16 90.288 1241.59 92.169 1241.59 94.563C1241.59 97.755 1242.62 100.263 1244.67 102.087C1246.84 103.911 1249.57 104.823 1252.88 104.823Z" fill="url(#paint0_linear_739_31)"/>
<defs>
<linearGradient id="paint0_linear_739_31" x1="-10.8119" y1="65.594" x2="1309.19" y2="65.594" gradientUnits="userSpaceOnUse">
<stop stop-color="#EFEEFF"/>
<stop offset="1" stop-color="#FFE2BE"/>
</linearGradient>
</defs>
</svg>
