<svg width="1440" height="216" viewBox="0 0 1440 216" fill="none" xmlns="http://www.w3.org/2000/svg">
<path d="M84.6168 215.928C71.9037 215.928 59.9729 214.754 48.8244 212.407C37.676 210.256 27.7989 206.637 19.1931 201.552C10.7828 196.467 4.13289 189.817 -0.756778 181.602C-5.64645 173.192 -8.09128 162.924 -8.09128 150.797C-8.09128 150.015 -8.09128 149.135 -8.09128 148.157C-8.09128 147.179 -7.99349 146.397 -7.7979 145.81H42.9568C42.9568 146.397 42.8591 147.179 42.6635 148.157C42.6635 148.939 42.6635 149.624 42.6635 150.211C42.6635 156.469 44.2282 161.555 47.3575 165.466C50.6825 169.183 55.2788 171.921 61.1464 173.681C67.014 175.246 73.8595 176.028 81.683 176.028C85.9859 176.028 89.9954 175.833 93.7116 175.441C97.4277 175.05 100.753 174.366 103.687 173.388C106.62 172.41 109.163 171.236 111.314 169.867C113.661 168.302 115.324 166.542 116.302 164.586C117.475 162.435 118.062 159.99 118.062 157.252C118.062 152.753 116.302 149.037 112.781 146.103C109.456 143.17 104.86 140.725 98.9924 138.769C93.3204 136.813 86.8661 134.955 79.6293 133.195C72.3926 131.434 64.8626 129.576 57.0391 127.62C49.2156 125.665 41.6855 123.22 34.4488 120.286C27.2121 117.352 20.66 113.636 14.7924 109.137C9.12035 104.639 4.52406 99.0647 1.0035 92.4148C-2.32147 85.5693 -3.98396 77.3546 -3.98396 67.7709C-3.98396 57.2092 -1.73471 48.1144 2.76378 40.4865C7.26227 32.6631 13.4233 26.3065 21.2467 21.4168C29.2658 16.5272 38.4583 13.0066 48.8244 10.8552C59.1905 8.50811 70.2412 7.33459 81.9764 7.33459C93.516 7.33459 104.273 8.50811 114.248 10.8552C124.419 13.2022 133.416 16.9183 141.239 22.0036C149.063 26.8933 155.126 33.152 159.429 40.7799C163.927 48.2122 166.274 57.2092 166.47 67.7709V71.2914H116.008V69.2378C116.008 64.7393 114.737 60.8276 112.195 57.5026C109.847 53.982 106.229 51.2438 101.339 49.2879C96.4498 47.1365 90.3866 46.0608 83.1499 46.0608C75.9132 46.0608 69.7522 46.7453 64.667 48.1144C59.7773 49.4835 55.9634 51.4394 53.2251 53.982C50.6825 56.5246 49.4112 59.5562 49.4112 63.0768C49.4112 67.3797 51.0737 70.9003 54.3987 73.6385C57.9192 76.3767 62.6133 78.7237 68.4809 80.6796C74.3485 82.6355 80.9007 84.4935 88.1374 86.2538C95.3741 87.8185 102.806 89.5788 110.434 91.5347C118.258 93.2949 125.788 95.642 133.025 98.5758C140.261 101.314 146.813 104.932 152.681 109.431C158.549 113.734 163.145 119.112 166.47 125.567C169.99 132.021 171.751 139.845 171.751 149.037C171.751 165.075 167.937 177.984 160.309 187.763C152.877 197.543 142.51 204.682 129.211 209.18C116.106 213.679 101.242 215.928 84.6168 215.928ZM251.335 215.928C234.319 215.928 219.845 212.994 207.914 207.126C195.984 201.259 186.791 192.36 180.337 180.429C174.078 168.302 170.948 153.144 170.948 134.955C170.948 116.765 174.176 101.705 180.63 89.7744C187.084 77.648 196.277 68.651 208.208 62.7834C220.139 56.9158 234.514 53.982 251.335 53.982C262.287 53.982 272.36 55.2533 281.553 57.796C290.941 60.3386 299.058 64.2503 305.903 69.5312C312.944 74.812 318.323 81.4619 322.039 89.481C325.755 97.5001 327.613 107.084 327.613 118.232H280.379C280.379 111.582 279.206 106.106 276.859 101.803C274.707 97.5001 271.48 94.2729 267.177 92.1214C262.874 89.97 257.496 88.8942 251.041 88.8942C243.609 88.8942 237.546 90.4589 232.852 93.5883C228.353 96.7177 225.028 101.314 222.877 107.377C220.725 113.44 219.65 120.97 219.65 129.967V140.529C219.65 149.331 220.725 156.763 222.877 162.826C225.028 168.889 228.549 173.485 233.438 176.615C238.328 179.549 244.587 181.016 252.215 181.016C258.865 181.016 264.341 180.038 268.644 178.082C273.142 175.93 276.565 172.703 278.912 168.4C281.259 163.902 282.433 158.328 282.433 151.678H327.613C327.613 162.435 325.755 171.921 322.039 180.135C318.323 188.154 313.042 194.804 306.197 200.085C299.351 205.366 291.234 209.376 281.846 212.114C272.458 214.656 262.287 215.928 251.335 215.928ZM334.451 212.407V9.22555e-05H382.565V74.5186H384.618C387.943 70.4113 391.953 66.8907 396.647 63.9569C401.537 60.8276 406.915 58.4805 412.783 56.9158C418.651 55.1555 424.714 54.2754 430.973 54.2754C442.121 54.2754 451.509 56.3291 459.137 60.4364C466.96 64.5437 472.926 70.7047 477.033 78.9193C481.141 87.134 483.194 97.5978 483.194 110.311V212.407H435.08V117.059C435.08 112.756 434.493 109.137 433.32 106.204C432.342 103.074 430.875 100.434 428.919 98.2824C426.963 96.1309 424.518 94.5663 421.584 93.5883C418.651 92.6104 415.326 92.1214 411.609 92.1214C405.937 92.1214 400.95 93.4905 396.647 96.2287C392.344 98.7714 388.921 102.292 386.379 106.79C383.836 111.093 382.565 116.179 382.565 122.046V212.407H334.451ZM570.301 215.928C553.089 215.928 538.322 212.994 526 207.126C513.874 201.259 504.486 192.36 497.836 180.429C491.381 168.302 488.154 153.144 488.154 134.955C488.154 116.765 491.381 101.705 497.836 89.7744C504.486 77.8436 513.874 68.9444 526 63.0768C538.322 57.2092 553.089 54.2754 570.301 54.2754C587.708 54.2754 602.475 57.2092 614.601 63.0768C626.923 68.9444 636.311 77.8436 642.765 89.7744C649.415 101.705 652.74 116.765 652.74 134.955C652.74 153.144 649.415 168.302 642.765 180.429C636.311 192.36 626.923 201.259 614.601 207.126C602.475 212.994 587.708 215.928 570.301 215.928ZM570.301 181.016C578.32 181.016 584.774 179.451 589.664 176.321C594.749 173.192 598.367 168.694 600.519 162.826C602.866 156.763 604.039 149.331 604.039 140.529V129.674C604.039 120.873 602.866 113.44 600.519 107.377C598.367 101.314 594.749 96.8155 589.664 93.8817C584.774 90.7523 578.32 89.1876 570.301 89.1876C562.477 89.1876 556.023 90.7523 550.937 93.8817C546.048 96.8155 542.429 101.314 540.082 107.377C537.931 113.44 536.855 120.873 536.855 129.674V140.529C536.855 149.331 537.931 156.763 540.082 162.826C542.429 168.694 546.048 173.192 550.937 176.321C556.023 179.451 562.477 181.016 570.301 181.016ZM733.058 215.928C715.846 215.928 701.079 212.994 688.757 207.126C676.631 201.259 667.243 192.36 660.593 180.429C654.138 168.302 650.911 153.144 650.911 134.955C650.911 116.765 654.138 101.705 660.593 89.7744C667.243 77.8436 676.631 68.9444 688.757 63.0768C701.079 57.2092 715.846 54.2754 733.058 54.2754C750.465 54.2754 765.232 57.2092 777.358 63.0768C789.68 68.9444 799.068 77.8436 805.523 89.7744C812.172 101.705 815.497 116.765 815.497 134.955C815.497 153.144 812.172 168.302 805.523 180.429C799.068 192.36 789.68 201.259 777.358 207.126C765.232 212.994 750.465 215.928 733.058 215.928ZM733.058 181.016C741.077 181.016 747.531 179.451 752.421 176.321C757.506 173.192 761.124 168.694 763.276 162.826C765.623 156.763 766.796 149.331 766.796 140.529V129.674C766.796 120.873 765.623 113.44 763.276 107.377C761.124 101.314 757.506 96.8155 752.421 93.8817C747.531 90.7523 741.077 89.1876 733.058 89.1876C725.234 89.1876 718.78 90.7523 713.695 93.8817C708.805 96.8155 705.187 101.314 702.84 107.377C700.688 113.44 699.612 120.873 699.612 129.674V140.529C699.612 149.331 700.688 156.763 702.84 162.826C705.187 168.694 708.805 173.192 713.695 176.321C718.78 179.451 725.234 181.016 733.058 181.016ZM821.003 212.407V9.22555e-05H869.117V212.407H821.003ZM925.178 215.928C918.724 215.928 912.367 215.243 906.108 213.874C900.045 212.701 894.471 210.549 889.386 207.42C884.496 204.095 880.584 199.596 877.65 193.924C874.717 188.252 873.25 181.113 873.25 172.508C873.25 161.359 875.597 152.264 880.291 145.223C884.985 138.182 891.733 132.706 900.534 128.794C909.531 124.687 920.288 121.851 932.806 120.286C945.519 118.721 959.699 117.939 975.346 117.939V108.257C975.346 103.759 974.466 100.043 972.706 97.1089C970.945 93.9795 968.305 91.6325 964.784 90.0678C961.459 88.3075 956.961 87.4273 951.289 87.4273C946.204 87.4273 941.705 88.0141 937.793 89.1876C934.077 90.3611 931.241 92.1214 929.285 94.4685C927.329 96.6199 926.352 99.2603 926.352 102.39V105.03H879.411C879.215 104.052 879.117 103.27 879.117 102.683C879.117 101.901 879.117 100.923 879.117 99.7493C879.117 90.5567 881.953 82.5377 887.625 75.6921C893.493 68.8466 901.805 63.5658 912.563 59.8496C923.32 56.1335 936.326 54.2754 951.582 54.2754C965.86 54.2754 978.28 56.0357 988.841 59.5562C999.599 63.0768 1008.01 68.4554 1014.07 75.6921C1020.33 82.9288 1023.46 92.4148 1023.46 104.15V170.161C1023.46 173.485 1024.34 176.126 1026.1 178.082C1028.06 180.038 1030.4 181.016 1033.14 181.016H1043.12V210.647C1040.97 211.625 1037.54 212.701 1032.85 213.874C1028.35 215.243 1022.87 215.928 1016.42 215.928C1009.77 215.928 1003.9 215.048 998.816 213.287C993.927 211.723 989.819 209.473 986.494 206.54C983.365 203.41 981.214 199.792 980.04 195.685H977.986C974.27 199.596 969.87 203.117 964.784 206.246C959.895 209.376 954.125 211.723 947.475 213.287C941.021 215.048 933.588 215.928 925.178 215.928ZM943.074 182.776C947.768 182.776 952.071 182.091 955.983 180.722C959.895 179.353 963.22 177.495 965.958 175.148C968.892 172.605 971.141 169.574 972.706 166.053C974.466 162.533 975.346 158.719 975.346 154.611V144.343C964.198 144.343 954.614 145.125 946.595 146.69C938.576 148.255 932.415 150.7 928.112 154.025C923.809 157.35 921.657 161.555 921.657 166.64C921.657 170.356 922.538 173.485 924.298 176.028C926.254 178.375 928.796 180.135 931.926 181.309C935.055 182.287 938.771 182.776 943.074 182.776ZM1090.71 215.928C1074.08 215.928 1061.17 211.331 1051.98 202.139C1042.98 192.946 1038.48 178.864 1038.48 159.892V57.796H1086.6V153.144C1086.6 157.252 1087.09 160.87 1088.07 164C1089.24 167.129 1090.8 169.769 1092.76 171.921C1094.72 174.072 1097.16 175.637 1100.09 176.615C1103.22 177.593 1106.55 178.082 1110.07 178.082C1115.74 178.082 1120.73 176.81 1125.03 174.268C1129.33 171.53 1132.76 167.911 1135.3 163.413C1137.84 158.719 1139.11 153.633 1139.11 148.157V57.796H1187.23V212.407H1147.62L1144.69 190.404H1142.63C1139.11 195.489 1134.62 199.987 1129.14 203.899C1123.86 207.811 1117.89 210.745 1111.24 212.701C1104.79 214.852 1097.94 215.928 1090.71 215.928ZM1200.4 212.407V57.796H1240.01L1243.53 81.5597H1245.58C1247.93 76.2789 1250.77 71.5848 1254.09 67.4775C1257.61 63.1746 1261.82 59.8496 1266.71 57.5026C1271.79 55.1555 1277.37 53.982 1283.43 53.982C1286.95 53.982 1290.18 54.3732 1293.11 55.1555C1296.04 55.7423 1298.2 56.4268 1299.57 57.2092V99.1625H1284.31C1278.25 99.1625 1272.87 100.043 1268.17 101.803C1263.68 103.368 1259.96 105.91 1257.03 109.431C1254.09 112.756 1251.94 116.863 1250.57 121.753C1249.2 126.642 1248.52 132.314 1248.52 138.769V212.407H1200.4ZM1336.67 215.928C1330.21 215.928 1323.86 215.243 1317.6 213.874C1311.53 212.701 1305.96 210.549 1300.87 207.42C1295.98 204.095 1292.07 199.596 1289.14 193.924C1286.21 188.252 1284.74 181.113 1284.74 172.508C1284.74 161.359 1287.09 152.264 1291.78 145.223C1296.47 138.182 1303.22 132.706 1312.02 128.794C1321.02 124.687 1331.78 121.851 1344.29 120.286C1357.01 118.721 1371.19 117.939 1386.83 117.939V108.257C1386.83 103.759 1385.95 100.043 1384.19 97.1089C1382.43 93.9795 1379.79 91.6325 1376.27 90.0678C1372.95 88.3075 1368.45 87.4273 1362.78 87.4273C1357.69 87.4273 1353.19 88.0141 1349.28 89.1876C1345.57 90.3611 1342.73 92.1214 1340.77 94.4685C1338.82 96.6199 1337.84 99.2603 1337.84 102.39V105.03H1290.9C1290.7 104.052 1290.61 103.27 1290.61 102.683C1290.61 101.901 1290.61 100.923 1290.61 99.7493C1290.61 90.5567 1293.44 82.5377 1299.11 75.6921C1304.98 68.8466 1313.29 63.5658 1324.05 59.8496C1334.81 56.1335 1347.81 54.2754 1363.07 54.2754C1377.35 54.2754 1389.77 56.0357 1400.33 59.5562C1411.09 63.0768 1419.5 68.4554 1425.56 75.6921C1431.82 82.9288 1434.95 92.4148 1434.95 104.15V170.161C1434.95 173.485 1435.83 176.126 1437.59 178.082C1439.54 180.038 1441.89 181.016 1444.63 181.016H1454.61V210.647C1452.45 211.625 1449.03 212.701 1444.34 213.874C1439.84 215.243 1434.36 215.928 1427.91 215.928C1421.26 215.928 1415.39 215.048 1410.3 213.287C1405.42 211.723 1401.31 209.473 1397.98 206.54C1394.85 203.41 1392.7 199.792 1391.53 195.685H1389.47C1385.76 199.596 1381.36 203.117 1376.27 206.246C1371.38 209.376 1365.61 211.723 1358.96 213.287C1352.51 215.048 1345.08 215.928 1336.67 215.928ZM1354.56 182.776C1359.26 182.776 1363.56 182.091 1367.47 180.722C1371.38 179.353 1374.71 177.495 1377.45 175.148C1380.38 172.605 1382.63 169.574 1384.19 166.053C1385.95 162.533 1386.83 158.719 1386.83 154.611V144.343C1375.69 144.343 1366.1 145.125 1358.08 146.69C1350.06 148.255 1343.9 150.7 1339.6 154.025C1335.3 157.35 1333.15 161.555 1333.15 166.64C1333.15 170.356 1334.03 173.485 1335.79 176.028C1337.74 178.375 1340.28 180.135 1343.41 181.309C1346.54 182.287 1350.26 182.776 1354.56 182.776Z" fill="#E5E5E5"/>
</svg>
